<?xml version="1.0" encoding="UTF-8" standalone="no"?>
<!-- Created with Inkscape (http://www.inkscape.org/) -->

<svg
   xmlns:dc="http://purl.org/dc/elements/1.1/"
   xmlns:cc="http://creativecommons.org/ns#"
   xmlns:rdf="http://www.w3.org/1999/02/22-rdf-syntax-ns#"
   xmlns:svg="http://www.w3.org/2000/svg"
   xmlns="http://www.w3.org/2000/svg"
   xmlns:xlink="http://www.w3.org/1999/xlink"
   xmlns:sodipodi="http://sodipodi.sourceforge.net/DTD/sodipodi-0.dtd"
   xmlns:inkscape="http://www.inkscape.org/namespaces/inkscape"
   width="210mm"
   height="297mm"
   id="svg4718"
   version="1.1"
   inkscape:version="0.48.1 r9760"
   sodipodi:docname="intrographics_2.svg">
  <defs
     id="defs4720">
    <radialGradient
       inkscape:collect="always"
       xlink:href="#linearGradient4973"
       id="radialGradient4983"
       cx="171.78912"
       cy="766.85834"
       fx="171.78912"
       fy="766.85834"
       r="21.628466"
       gradientTransform="matrix(7.8115022,-0.3583078,0.06935296,1.5119703,-1311.3186,-849.38393)"
       gradientUnits="userSpaceOnUse" />
    <linearGradient
       inkscape:collect="always"
       id="linearGradient4973">
      <stop
         style="stop-color:#000000;stop-opacity:1;"
         offset="0"
         id="stop4975" />
      <stop
         style="stop-color:#000000;stop-opacity:0;"
         offset="1"
         id="stop4977" />
    </linearGradient>
    <radialGradient
       inkscape:collect="always"
       xlink:href="#linearGradient4973"
       id="radialGradient2430"
       gradientUnits="userSpaceOnUse"
       gradientTransform="matrix(7.8115022,-0.3583078,0.06935296,1.5119703,-1307.7605,-845.03643)"
       cx="171.78912"
       cy="766.85834"
       fx="171.78912"
       fy="766.85834"
       r="21.628466" />
    <radialGradient
       inkscape:collect="always"
       xlink:href="#linearGradient4891"
       id="radialGradient4897"
       cx="139.39456"
       cy="831.9176"
       fx="139.39456"
       fy="831.9176"
       r="16.226471"
       gradientTransform="matrix(1,0,0,3.8239062,-106.64571,-2879.3393)"
       gradientUnits="userSpaceOnUse" />
    <linearGradient
       inkscape:collect="always"
       id="linearGradient4891">
      <stop
         style="stop-color:#000000;stop-opacity:1;"
         offset="0"
         id="stop4893" />
      <stop
         style="stop-color:#000000;stop-opacity:0;"
         offset="1"
         id="stop4895" />
    </linearGradient>
    <radialGradient
       inkscape:collect="always"
       xlink:href="#linearGradient4891"
       id="radialGradient2426"
       gradientUnits="userSpaceOnUse"
       gradientTransform="matrix(1,0,0,3.8239062,-101.62079,-2878.2409)"
       cx="139.39456"
       cy="831.9176"
       fx="139.39456"
       fy="831.9176"
       r="16.226471" />
    <radialGradient
       inkscape:collect="always"
       xlink:href="#linearGradient4891"
       id="radialGradient4901"
       cx="261.91119"
       cy="862.09955"
       fx="261.91119"
       fy="862.09955"
       r="95.375366"
       gradientTransform="matrix(1.1772478,-0.1319053,0.09549254,0.8522657,-222.00856,-359.84976)"
       gradientUnits="userSpaceOnUse"
       spreadMethod="reflect" />
    <radialGradient
       inkscape:collect="always"
       xlink:href="#linearGradient4747"
       id="radialGradient4753"
       cx="407.44165"
       cy="826.13873"
       fx="407.44165"
       fy="826.13873"
       r="96.29229"
       gradientTransform="matrix(-0.4310277,-0.9023387,1.049277,-0.501217,-359.4338,1090.0173)"
       gradientUnits="userSpaceOnUse"
       spreadMethod="reflect" />
    <linearGradient
       id="linearGradient4747">
      <stop
         style="stop-color:#000000;stop-opacity:1;"
         offset="0"
         id="stop4749" />
      <stop
         style="stop-color:#000000;stop-opacity:0;"
         offset="1"
         id="stop4751" />
    </linearGradient>
    <radialGradient
       inkscape:collect="always"
       xlink:href="#linearGradient4747"
       id="radialGradient2422"
       gradientUnits="userSpaceOnUse"
       gradientTransform="matrix(-0.4310277,-0.9023387,1.049277,-0.501217,-353.31575,1092.427)"
       spreadMethod="reflect"
       cx="407.44165"
       cy="826.13873"
       fx="407.44165"
       fy="826.13873"
       r="96.29229" />
    <linearGradient
       id="linearGradient5556">
      <stop
         style="stop-color:#000000;stop-opacity:1;"
         offset="0"
         id="stop5558" />
      <stop
         style="stop-color:#000000;stop-opacity:0;"
         offset="1"
         id="stop5560" />
    </linearGradient>
    <radialGradient
       inkscape:collect="always"
       xlink:href="#linearGradient4891"
       id="radialGradient2418"
       gradientUnits="userSpaceOnUse"
       gradientTransform="matrix(1.1772478,-0.1319053,0.09549254,0.8522657,-122.62073,156.45604)"
       spreadMethod="reflect"
       cx="261.91119"
       cy="862.09955"
       fx="261.91119"
       fy="862.09955"
       r="95.375366" />
    <radialGradient
       r="95.375366"
       fy="862.09955"
       fx="261.91119"
       cy="862.09955"
       cx="261.91119"
       spreadMethod="reflect"
       gradientTransform="matrix(1.1772478,-0.1319053,0.09549254,0.8522657,-212.76644,-358.52886)"
       gradientUnits="userSpaceOnUse"
       id="radialGradient5577"
       xlink:href="#linearGradient4891"
       inkscape:collect="always" />
    <linearGradient
       inkscape:collect="always"
       xlink:href="#linearGradient5556"
       id="linearGradient5672"
       x1="197.38698"
       y1="544.40619"
       x2="348.97491"
       y2="654.26221"
       gradientUnits="userSpaceOnUse" />
  </defs>
  <sodipodi:namedview
     id="base"
     pagecolor="#ffffff"
     bordercolor="#666666"
     borderopacity="1.0"
     inkscape:pageopacity="0.0"
     inkscape:pageshadow="2"
     inkscape:zoom="2.0249207"
     inkscape:cx="152.84535"
     inkscape:cy="881.98913"
     inkscape:document-units="px"
     inkscape:current-layer="layer1"
     showgrid="false"
     showguides="true"
     inkscape:guide-bbox="true"
     inkscape:window-width="1206"
     inkscape:window-height="948"
     inkscape:window-x="54"
     inkscape:window-y="24"
     inkscape:window-maximized="0">
    <sodipodi:guide
       orientation="0,1"
       position="155.25114,1026.7275"
       id="guide4808" />
    <sodipodi:guide
       orientation="0,1"
       position="280.48706,908.73668"
       id="guide4810" />
  </sodipodi:namedview>
  <metadata
     id="metadata4723">
    <rdf:RDF>
      <cc:Work
         rdf:about="">
        <dc:format>image/svg+xml</dc:format>
        <dc:type
           rdf:resource="http://purl.org/dc/dcmitype/StillImage" />
        <dc:title></dc:title>
      </cc:Work>
    </rdf:RDF>
  </metadata>
  <g
     inkscape:label="Ebene 1"
     inkscape:groupmode="layer"
     id="layer1">
    <g
       style="display:inline"
       id="layer1-5-0"
       inkscape:label="Ebene 1"
       transform="matrix(0.22343046,0,0,0.22343046,-3.3621915,5.9361933)"
       inkscape:export-filename="/home/dahie/imageflow/src/de/danielsenff/imageflow/resources/dash_widget.png"
       inkscape:export-xdpi="44.083855"
       inkscape:export-ydpi="44.083855">
      <path
         transform="matrix(1.0818432,0,0,1.0851926,-28.613107,-27.919984)"
         d="m 617.14285,362.36218 c 0,136.49323 -110.64962,247.14286 -247.14285,247.14286 -136.49323,0 -247.14285,-110.64963 -247.14285,-247.14286 0,-136.49323 110.64962,-247.14285 247.14285,-247.14285 136.49323,0 247.14285,110.64962 247.14285,247.14285 z"
         sodipodi:ry="247.14285"
         sodipodi:rx="247.14285"
         sodipodi:cy="362.36218"
         sodipodi:cx="370"
         id="path2844-9"
         style="fill:none;stroke:#000000;stroke-width:35.66073608;stroke-miterlimit:4;stroke-opacity:1;stroke-dasharray:none"
         sodipodi:type="arc" />
      <path
         id="path3622-6"
         d="m 342.69693,424.91225 -86.08812,-187.0761 163.89853,187.0761 -77.81041,0 z"
         style="fill:#000000;fill-opacity:1;stroke:none"
         inkscape:connector-curvature="0" />
      <path
         transform="matrix(0.79484705,0,0,0.79484705,71.286364,81.631852)"
         d="m 470.17356,458.02307 c 0,36.5732 -29.64843,66.22163 -66.22163,66.22163 -36.57319,0 -66.22162,-29.64843 -66.22162,-66.22163 0,-36.57319 29.64843,-66.22162 66.22162,-66.22162 36.5732,0 66.22163,29.64843 66.22163,66.22162 z"
         sodipodi:ry="66.221626"
         sodipodi:rx="66.221626"
         sodipodi:cy="458.02307"
         sodipodi:cx="403.95193"
         id="path3624-3"
         style="fill:#000000;fill-opacity:1;fill-rule:nonzero;stroke:none"
         sodipodi:type="arc" />
      <path
         transform="translate(3.6797672,0.61329453)"
         d="m 232.43863,355.65961 c 0,20.6615 -16.74946,37.41096 -37.41097,37.41096 -20.6615,0 -37.41096,-16.74946 -37.41096,-37.41096 0,-20.66151 16.74946,-37.41097 37.41096,-37.41097 20.66151,0 37.41097,16.74946 37.41097,37.41097 z"
         sodipodi:ry="37.410965"
         sodipodi:rx="37.410965"
         sodipodi:cy="355.65961"
         sodipodi:cx="195.02766"
         id="path3626-8"
         style="fill:#000000;fill-opacity:1;fill-rule:nonzero;stroke:none"
         sodipodi:type="arc" />
      <path
         sodipodi:type="arc"
         style="fill:#000000;fill-opacity:1;fill-rule:nonzero;stroke:none"
         id="path3628-5"
         sodipodi:cx="195.02766"
         sodipodi:cy="355.65961"
         sodipodi:rx="37.410965"
         sodipodi:ry="37.410965"
         d="m 232.43863,355.65961 c 0,20.6615 -16.74946,37.41096 -37.41097,37.41096 -20.6615,0 -37.41096,-16.74946 -37.41096,-37.41096 0,-20.66151 16.74946,-37.41097 37.41096,-37.41097 20.66151,0 37.41097,16.74946 37.41097,37.41097 z"
         transform="translate(144.70423,-164.97623)" />
      <path
         transform="translate(325.62612,-67.4624)"
         d="m 232.43863,355.65961 c 0,20.6615 -16.74946,37.41096 -37.41097,37.41096 -20.6615,0 -37.41096,-16.74946 -37.41096,-37.41096 0,-20.66151 16.74946,-37.41097 37.41096,-37.41097 20.66151,0 37.41097,16.74946 37.41097,37.41097 z"
         sodipodi:ry="37.410965"
         sodipodi:rx="37.410965"
         sodipodi:cy="355.65961"
         sodipodi:cx="195.02766"
         id="path3630-6"
         style="fill:#000000;fill-opacity:1;fill-rule:nonzero;stroke:none"
         sodipodi:type="arc" />
    </g>
    <path
       sodipodi:type="arc"
       style="fill:none;stroke:#5599ff;stroke-width:35.66073607999999950;stroke-miterlimit:4;stroke-opacity:1;stroke-dasharray:none;display:inline"
       id="path2844-9-7"
       sodipodi:cx="370"
       sodipodi:cy="362.36218"
       sodipodi:rx="247.14285"
       sodipodi:ry="247.14285"
       d="m 617.14285,362.36218 a 247.14285,247.14285 0 1 1 -494.2857,0 247.14285,247.14285 0 1 1 494.2857,0 z"
       transform="matrix(0.24171672,0,0,0.24246508,-16.403682,-2.3019767)"
       inkscape:export-filename="/home/dahie/imageflow/src/de/danielsenff/imageflow/resources/dash_widget.png"
       inkscape:export-xdpi="44.083855"
       inkscape:export-ydpi="44.083855" />
    <path
       inkscape:connector-curvature="0"
       style="fill:#5599ff;fill-opacity:1;stroke:none;display:inline"
       d="m 66.558299,98.874529 -19.234711,-41.798496 36.619931,41.798496 -17.38522,0 z"
       id="path3622-6-4"
       inkscape:export-filename="/home/dahie/imageflow/src/de/danielsenff/imageflow/resources/dash_widget.png"
       inkscape:export-xdpi="44.083855"
       inkscape:export-ydpi="44.083855" />
    <path
       sodipodi:type="arc"
       style="fill:#5599ff;fill-opacity:1;fill-rule:nonzero;stroke:none;display:inline"
       id="path3624-3-7"
       sodipodi:cx="403.95193"
       sodipodi:cy="458.02307"
       sodipodi:rx="66.221626"
       sodipodi:ry="66.221626"
       d="m 470.17356,458.02307 a 66.221626,66.221626 0 1 1 -132.44325,0 66.221626,66.221626 0 1 1 132.44325,0 z"
       transform="matrix(0.17759304,0,0,0.17759304,5.9169185,22.175233)"
       inkscape:export-filename="/home/dahie/imageflow/src/de/danielsenff/imageflow/resources/dash_widget.png"
       inkscape:export-xdpi="44.083855"
       inkscape:export-ydpi="44.083855" />
    <path
       sodipodi:type="arc"
       style="fill:#5599ff;fill-opacity:1;fill-rule:nonzero;stroke:none;display:inline"
       id="path3626-8-1"
       sodipodi:cx="195.02766"
       sodipodi:cy="355.65961"
       sodipodi:rx="37.410965"
       sodipodi:ry="37.410965"
       d="m 232.43863,355.65961 a 37.410965,37.410965 0 1 1 -74.82193,0 37.410965,37.410965 0 1 1 74.82193,0 z"
       transform="matrix(0.22343046,0,0,0.22343046,-9.1884718,4.0732233)"
       inkscape:export-filename="/home/dahie/imageflow/src/de/danielsenff/imageflow/resources/dash_widget.png"
       inkscape:export-xdpi="44.083855"
       inkscape:export-ydpi="44.083855" />
    <path
       transform="matrix(0.22343046,0,0,0.22343046,22.320698,-32.924517)"
       d="m 232.43863,355.65961 a 37.410965,37.410965 0 1 1 -74.82193,0 37.410965,37.410965 0 1 1 74.82193,0 z"
       sodipodi:ry="37.410965"
       sodipodi:rx="37.410965"
       sodipodi:cy="355.65961"
       sodipodi:cx="195.02766"
       id="path3628-5-4"
       style="fill:#5599ff;fill-opacity:1;fill-rule:nonzero;stroke:none;display:inline"
       sodipodi:type="arc"
       inkscape:export-filename="/home/dahie/imageflow/src/de/danielsenff/imageflow/resources/dash_widget.png"
       inkscape:export-xdpi="44.083855"
       inkscape:export-ydpi="44.083855" />
    <path
       sodipodi:type="arc"
       style="fill:#5599ff;fill-opacity:1;fill-rule:nonzero;stroke:none;display:inline"
       id="path3630-6-0"
       sodipodi:cx="195.02766"
       sodipodi:cy="355.65961"
       sodipodi:rx="37.410965"
       sodipodi:ry="37.410965"
       d="m 232.43863,355.65961 a 37.410965,37.410965 0 1 1 -74.82193,0 37.410965,37.410965 0 1 1 74.82193,0 z"
       transform="matrix(0.22343046,0,0,0.22343046,62.744159,-11.136967)"
       inkscape:export-filename="/home/dahie/imageflow/src/de/danielsenff/imageflow/resources/dash_widget.png"
       inkscape:export-xdpi="44.083855"
       inkscape:export-ydpi="44.083855" />
    <g
       id="layer1-7"
       transform="matrix(1.0740497,0,0,1.0740497,-105.06472,-557.08458)"
       inkscape:export-filename="/home/dahie/imageflow/src/de/danielsenff/imageflow/resources/dash_preview.png"
       inkscape:export-xdpi="46.983929"
       inkscape:export-ydpi="46.983929">
      <path
         style="fill:#000000"
         id="path4986"
         d="m 259.00001,648.76219 0,-5.5 62,0 62,0 0,5.5 0,5.5 -62,0 -62,0 0,-5.5 z m 10.5,-18.38073 c -4.90212,-2.25106 -7.27399,-4.81996 -9.05119,-9.80307 -1.8052,-5.06162 -1.91015,-62.22973 -0.12273,-66.8519 1.84962,-4.78302 4.12169,-7.39836 8.26039,-9.50839 3.65184,-1.86181 6.17608,-1.95591 52.46769,-1.95591 l 48.63127,0 4.35455,2.30274 c 2.97633,1.57392 5.08336,3.68095 6.65728,6.65728 2.25898,4.2718 2.30263,4.93591 2.29716,34.94726 -0.003,17.06361 -0.44254,32.16567 -0.99367,34.14957 -1.18105,4.25144 -5.12634,8.26293 -10.21863,10.3901 -3.18602,1.33088 -10.4818,1.54991 -51,1.53109 -43.73588,-0.0203 -47.58213,-0.15973 -51.28212,-1.85877 z m 100.58896,-11.98005 c 1.7809,-2.20002 1.91104,-4.29081 1.91104,-30.70295 0,-29.72175 -0.39388,-32.77032 -4.3719,-33.83786 -1.17045,-0.31411 -22.44075,-0.57725 -47.26732,-0.58476 -42.95424,-0.013 -45.25349,0.0788 -47.5,1.89675 l -2.36078,1.9104 -0.29305,28.41126 c -0.30859,29.9176 0.0635,33.12706 4.0285,34.7466 1.29941,0.53076 21.80084,0.83897 48.10351,0.72316 l 45.83896,-0.20182 1.91104,-2.36078 z m -61.58896,-9.79817 c -6.18171,-1.31962 -14.74822,-5.11438 -20.0914,-8.90001 -6.54019,-4.63371 -12.4086,-10.69542 -12.4086,-12.81733 0,-2.33898 12.41865,-13.30212 18.53591,-16.36344 8.4936,-4.25053 15.51667,-5.73166 26.96409,-5.68658 11.22991,0.0442 18.62936,1.81551 27.71069,6.63339 5.38742,2.85816 16.78931,13.47864 16.78931,15.63868 0,0.54683 -2.64283,3.63708 -5.87297,6.86721 -10.72848,10.72848 -22.93618,15.33941 -40.12703,15.15625 -5.225,-0.0557 -10.4,-0.29335 -11.5,-0.52817 z m 20.96667,-12.87438 c 3.06942,-3.06943 3.53333,-4.16773 3.53333,-8.36514 0,-11.35007 -12.98225,-16.96543 -20.90529,-9.0424 -7.89804,7.89805 -2.22997,20.90309 9.12196,20.92978 4.07292,0.01 5.1989,-0.47115 8.25,-3.52224 z m -30.03114,-3.21667 c -0.33142,-1.5125 -0.74451,-3.23078 -0.91798,-3.81841 -0.17348,-0.58762 0.0287,-2.95012 0.44924,-5.25 0.52499,-2.87093 0.41495,-4.17382 -0.35106,-4.1568 -2.01087,0.0447 -10.7045,7.02255 -10.0562,8.07153 0.81043,1.3113 9.693,7.84612 10.70952,7.87889 0.42298,0.0136 0.49789,-1.21271 0.16648,-2.72521 z m 51.44727,-2.80484 c 1.71741,-1.4451 2.89577,-2.99443 2.61857,-3.44294 -0.59675,-0.96556 -9.58484,-7.0028 -10.42281,-7.00093 -0.31821,7.1e-4 -0.57856,3.55422 -0.57856,7.8967 l 0,7.89541 2.63012,-1.36039 c 1.44657,-0.74821 4.03527,-2.54274 5.75268,-3.98785 z"
         inkscape:connector-curvature="0" />
    </g>
    <g
       id="layer1-7-7"
       transform="matrix(1.0740497,0,0,1.0740497,-111.18058,-559.08461)"
       style="fill:#5599ff;fill-opacity:1;stroke:url(#linearGradient5672)"
       inkscape:export-filename="/home/dahie/imageflow/src/de/danielsenff/imageflow/resources/dash_preview.png"
       inkscape:export-xdpi="46.983929"
       inkscape:export-ydpi="46.983929">
      <path
         style="fill:#5599ff;fill-opacity:1;stroke:url(#linearGradient5672)"
         id="path4986-1"
         d="m 259.00001,648.76219 0,-5.5 62,0 62,0 0,5.5 0,5.5 -62,0 -62,0 0,-5.5 z m 10.5,-18.38073 c -4.90212,-2.25106 -7.27399,-4.81996 -9.05119,-9.80307 -1.8052,-5.06162 -1.91015,-62.22973 -0.12273,-66.8519 1.84962,-4.78302 4.12169,-7.39836 8.26039,-9.50839 3.65184,-1.86181 6.17608,-1.95591 52.46769,-1.95591 l 48.63127,0 4.35455,2.30274 c 2.97633,1.57392 5.08336,3.68095 6.65728,6.65728 2.25898,4.2718 2.30263,4.93591 2.29716,34.94726 -0.003,17.06361 -0.44254,32.16567 -0.99367,34.14957 -1.18105,4.25144 -5.12634,8.26293 -10.21863,10.3901 -3.18602,1.33088 -10.4818,1.54991 -51,1.53109 -43.73588,-0.0203 -47.58213,-0.15973 -51.28212,-1.85877 z m 100.58896,-11.98005 c 1.7809,-2.20002 1.91104,-4.29081 1.91104,-30.70295 0,-29.72175 -0.39388,-32.77032 -4.3719,-33.83786 -1.17045,-0.31411 -22.44075,-0.57725 -47.26732,-0.58476 -42.95424,-0.013 -45.25349,0.0788 -47.5,1.89675 l -2.36078,1.9104 -0.29305,28.41126 c -0.30859,29.9176 0.0635,33.12706 4.0285,34.7466 1.29941,0.53076 21.80084,0.83897 48.10351,0.72316 l 45.83896,-0.20182 1.91104,-2.36078 z m -61.58896,-9.79817 c -6.18171,-1.31962 -14.74822,-5.11438 -20.0914,-8.90001 -6.54019,-4.63371 -12.4086,-10.69542 -12.4086,-12.81733 0,-2.33898 12.41865,-13.30212 18.53591,-16.36344 8.4936,-4.25053 15.51667,-5.73166 26.96409,-5.68658 11.22991,0.0442 18.62936,1.81551 27.71069,6.63339 5.38742,2.85816 16.78931,13.47864 16.78931,15.63868 0,0.54683 -2.64283,3.63708 -5.87297,6.86721 -10.72848,10.72848 -22.93618,15.33941 -40.12703,15.15625 -5.225,-0.0557 -10.4,-0.29335 -11.5,-0.52817 z m 20.96667,-12.87438 c 3.06942,-3.06943 3.53333,-4.16773 3.53333,-8.36514 0,-11.35007 -12.98225,-16.96543 -20.90529,-9.0424 -7.89804,7.89805 -2.22997,20.90309 9.12196,20.92978 4.07292,0.01 5.1989,-0.47115 8.25,-3.52224 z m -30.03114,-3.21667 c -0.33142,-1.5125 -0.74451,-3.23078 -0.91798,-3.81841 -0.17348,-0.58762 0.0287,-2.95012 0.44924,-5.25 0.52499,-2.87093 0.41495,-4.17382 -0.35106,-4.1568 -2.01087,0.0447 -10.7045,7.02255 -10.0562,8.07153 0.81043,1.3113 9.693,7.84612 10.70952,7.87889 0.42298,0.0136 0.49789,-1.21271 0.16648,-2.72521 z m 51.44727,-2.80484 c 1.71741,-1.4451 2.89577,-2.99443 2.61857,-3.44294 -0.59675,-0.96556 -9.58484,-7.0028 -10.42281,-7.00093 -0.31821,7.1e-4 -0.57856,3.55422 -0.57856,7.8967 l 0,7.89541 2.63012,-1.36039 c 1.44657,-0.74821 4.03527,-2.54274 5.75268,-3.98785 z"
         inkscape:connector-curvature="0" />
    </g>
    <path
       inkscape:connector-curvature="0"
       style="fill:#1a1a1a;fill-rule:evenodd;stroke:url(#radialGradient5577);stroke-width:2;stroke-linecap:butt;stroke-linejoin:miter;stroke-miterlimit:4;stroke-opacity:0.35587188;stroke-dasharray:none"
       d="M 49.027062,384.41247 C 197.23199,391.20689 207.52835,325.6342 235.3254,274.17255 c 7.71487,-14.28278 12.05425,-29.50485 38.35612,-45.26008 -22.01551,-0.54669 -52.45085,2.2235 -66.84121,31.81279 -27.48415,56.51264 -43.74662,92.17265 -103.24719,98.22047 -23.551328,2.39382 -43.122048,9.61683 -54.566058,25.46674 z"
       id="path2416"
       sodipodi:nodetypes="cscssc"
       inkscape:export-filename="/Users/danielsenff/Programming/Java/workspace/imageflow/src/imageflow/resources/iw-logo.png"
       inkscape:export-xdpi="29.869665"
       inkscape:export-ydpi="29.869665" />
    <path
       inkscape:connector-curvature="0"
       style="fill:#1a1a1a;fill-opacity:1;fill-rule:evenodd;stroke:url(#radialGradient2422);stroke-width:2;stroke-linecap:butt;stroke-linejoin:miter;stroke-miterlimit:4;stroke-opacity:0.35587188;stroke-dasharray:none"
       d="m 159.062,386.0835 c 190.41721,8.5105 193.49372,-76.90712 192.48584,-160.00005 -12.32487,10.45331 -30.36311,18.91855 -30.6095,36.31279 -0.7935,56.01651 -44.87294,92.17265 -105.90541,98.22047 -24.15768,2.39382 -44.23227,9.61683 -55.97093,25.46679 z"
       id="path2420"
       sodipodi:nodetypes="ccssc"
       inkscape:export-filename="/Users/danielsenff/Programming/Java/workspace/imageflow/src/imageflow/resources/iw-logo.png"
       inkscape:export-xdpi="29.869665"
       inkscape:export-ydpi="29.869665" />
    <path
       inkscape:connector-curvature="0"
       style="fill:#80b3ff;fill-opacity:1;fill-rule:evenodd;stroke:url(#radialGradient4753);stroke-width:2;stroke-linecap:butt;stroke-linejoin:miter;stroke-miterlimit:4;stroke-opacity:0.35587188;stroke-dasharray:none"
       d="m 152.94395,383.67382 c 190.41721,8.5105 193.49372,-76.90712 192.48584,-160.00005 -12.32487,10.45331 -30.36311,18.91855 -30.6095,36.31279 -0.7935,56.01651 -44.87294,92.17265 -105.90541,98.22047 -24.15768,2.39382 -44.23227,9.61683 -55.97093,25.46679 z"
       id="path2389"
       sodipodi:nodetypes="ccssc"
       inkscape:export-filename="/Users/danielsenff/Programming/Java/workspace/imageflow/src/imageflow/resources/iw-logo.png"
       inkscape:export-xdpi="29.869665"
       inkscape:export-ydpi="29.869665" />
    <path
       inkscape:connector-curvature="0"
       style="fill:#5599ff;fill-opacity:1;fill-rule:evenodd;stroke:url(#radialGradient4901);stroke-width:2;stroke-linecap:butt;stroke-linejoin:miter;stroke-miterlimit:4;stroke-opacity:0.35587188;stroke-dasharray:none"
       d="M 39.784942,383.09157 C 187.98988,389.88599 198.28624,324.3133 226.08329,272.85165 c 7.71486,-14.28278 12.05425,-29.50485 38.35612,-45.26008 -22.01552,-0.54669 -52.45086,2.2235 -66.84121,31.81279 -27.48416,56.51264 -43.74663,92.17265 -103.2472,98.22047 -23.551318,2.39382 -43.122038,9.61683 -54.566058,25.46674 z"
       id="path2387"
       sodipodi:nodetypes="cscssc"
       inkscape:export-filename="/Users/danielsenff/Programming/Java/workspace/imageflow/src/imageflow/resources/iw-logo.png"
       inkscape:export-xdpi="29.869665"
       inkscape:export-ydpi="29.869665" />
    <path
       inkscape:connector-curvature="0"
       style="fill:#000000;fill-rule:evenodd;stroke:url(#radialGradient2426)"
       d="m 34.127822,385.42578 c 2.55081,-8.0916 31.76428,-15.41097 32.01454,-29.52176 0.6259,-35.2905 -1.01647,-29.89501 0.4384,-94.57524 -50.0171,3.73834 -21.69191,79.87584 -32.45294,124.097 z"
       id="path2424"
       sodipodi:nodetypes="cscc"
       inkscape:export-filename="/Users/danielsenff/Programming/Java/workspace/imageflow/src/imageflow/resources/iw-logo.png"
       inkscape:export-xdpi="29.869665"
       inkscape:export-ydpi="29.869665" />
    <path
       inkscape:connector-curvature="0"
       style="fill:#2a7fff;fill-rule:evenodd;stroke:url(#radialGradient4897)"
       d="m 29.102902,384.32737 c 2.55081,-8.0916 31.76428,-15.41097 32.01454,-29.52176 0.6259,-35.2905 -1.01647,-29.89501 0.4384,-94.57524 -50.0171,3.73834 -21.69191,79.87584 -32.45294,124.097 z"
       id="path3167"
       sodipodi:nodetypes="cscc"
       inkscape:export-filename="/Users/danielsenff/Programming/Java/workspace/imageflow/src/imageflow/resources/iw-logo.png"
       inkscape:export-xdpi="29.869665"
       inkscape:export-ydpi="29.869665" />
    <path
       inkscape:connector-curvature="0"
       style="fill:#1a1a1a;fill-rule:evenodd;stroke:url(#radialGradient2430);stroke-width:2;stroke-linecap:butt;stroke-linejoin:miter;stroke-miterlimit:4;stroke-opacity:0.35587188;stroke-dasharray:none"
       d="m 64.225822,263.38154 c 32.857128,-0.5942 40.899468,6.95344 41.256928,-33.93716 -32.487348,-0.3517 -40.722788,-4.21407 -41.256928,33.93716 z"
       id="path2428"
       sodipodi:nodetypes="ccc"
       inkscape:export-filename="/Users/danielsenff/Programming/Java/workspace/imageflow/src/imageflow/resources/iw-logo.png"
       inkscape:export-xdpi="29.869665"
       inkscape:export-ydpi="29.869665" />
    <path
       inkscape:connector-curvature="0"
       style="fill:#2a7fff;fill-rule:evenodd;stroke:url(#radialGradient4983);stroke-width:2;stroke-linecap:butt;stroke-linejoin:miter;stroke-miterlimit:4;stroke-opacity:0.35587188;stroke-dasharray:none"
       d="m 60.667712,259.03407 c 32.857128,-0.5942 40.899468,6.95344 41.256928,-33.93716 -32.487358,-0.3517 -40.722788,-4.21407 -41.256928,33.93716 z"
       id="path3169"
       sodipodi:nodetypes="ccc"
       inkscape:export-filename="/Users/danielsenff/Programming/Java/workspace/imageflow/src/imageflow/resources/iw-logo.png"
       inkscape:export-xdpi="29.869665"
       inkscape:export-ydpi="29.869665" />
  </g>
</svg>
