<?xml version="1.0" encoding="UTF-8" standalone="no"?>
<!-- Created with Inkscape (http://www.inkscape.org/) -->

<svg
   xmlns:dc="http://purl.org/dc/elements/1.1/"
   xmlns:cc="http://creativecommons.org/ns#"
   xmlns:rdf="http://www.w3.org/1999/02/22-rdf-syntax-ns#"
   xmlns:svg="http://www.w3.org/2000/svg"
   xmlns="http://www.w3.org/2000/svg"
   version="1.1"
   width="744.09448"
   height="1052.3622"
   id="svg4952">
  <defs
     id="defs4954" />
  <metadata
     id="metadata4957">
    <rdf:RDF>
      <cc:Work
         rdf:about="">
        <dc:format>image/svg+xml</dc:format>
        <dc:type
           rdf:resource="http://purl.org/dc/dcmitype/StillImage" />
        <dc:title></dc:title>
      </cc:Work>
    </rdf:RDF>
  </metadata>
  <g
     id="layer1">
    <path
       d="m 259.00001,648.76219 0,-5.5 62,0 62,0 0,5.5 0,5.5 -62,0 -62,0 0,-5.5 z m 10.5,-18.38073 c -4.90212,-2.25106 -7.27399,-4.81996 -9.05119,-9.80307 -1.8052,-5.06162 -1.91015,-62.22973 -0.12273,-66.8519 1.84962,-4.78302 4.12169,-7.39836 8.26039,-9.50839 3.65184,-1.86181 6.17608,-1.95591 52.46769,-1.95591 l 48.63127,0 4.35455,2.30274 c 2.97633,1.57392 5.08336,3.68095 6.65728,6.65728 2.25898,4.2718 2.30263,4.93591 2.29716,34.94726 -0.003,17.06361 -0.44254,32.16567 -0.99367,34.14957 -1.18105,4.25144 -5.12634,8.26293 -10.21863,10.3901 -3.18602,1.33088 -10.4818,1.54991 -51,1.53109 -43.73588,-0.0203 -47.58213,-0.15973 -51.28212,-1.85877 z m 100.58896,-11.98005 c 1.7809,-2.20002 1.91104,-4.29081 1.91104,-30.70295 0,-29.72175 -0.39388,-32.77032 -4.3719,-33.83786 -1.17045,-0.31411 -22.44075,-0.57725 -47.26732,-0.58476 -42.95424,-0.013 -45.25349,0.0788 -47.5,1.89675 l -2.36078,1.9104 -0.29305,28.41126 c -0.30859,29.9176 0.0635,33.12706 4.0285,34.7466 1.29941,0.53076 21.80084,0.83897 48.10351,0.72316 l 45.83896,-0.20182 1.91104,-2.36078 z m -61.58896,-9.79817 c -6.18171,-1.31962 -14.74822,-5.11438 -20.0914,-8.90001 -6.54019,-4.63371 -12.4086,-10.69542 -12.4086,-12.81733 0,-2.33898 12.41865,-13.30212 18.53591,-16.36344 8.4936,-4.25053 15.51667,-5.73166 26.96409,-5.68658 11.22991,0.0442 18.62936,1.81551 27.71069,6.63339 5.38742,2.85816 16.78931,13.47864 16.78931,15.63868 0,0.54683 -2.64283,3.63708 -5.87297,6.86721 -10.72848,10.72848 -22.93618,15.33941 -40.12703,15.15625 -5.225,-0.0557 -10.4,-0.29335 -11.5,-0.52817 z m 20.96667,-12.87438 c 3.06942,-3.06943 3.53333,-4.16773 3.53333,-8.36514 0,-11.35007 -12.98225,-16.96543 -20.90529,-9.0424 -7.89804,7.89805 -2.22997,20.90309 9.12196,20.92978 4.07292,0.01 5.1989,-0.47115 8.25,-3.52224 z m -30.03114,-3.21667 c -0.33142,-1.5125 -0.74451,-3.23078 -0.91798,-3.81841 -0.17348,-0.58762 0.0287,-2.95012 0.44924,-5.25 0.52499,-2.87093 0.41495,-4.17382 -0.35106,-4.1568 -2.01087,0.0447 -10.7045,7.02255 -10.0562,8.07153 0.81043,1.3113 9.693,7.84612 10.70952,7.87889 0.42298,0.0136 0.49789,-1.21271 0.16648,-2.72521 z m 51.44727,-2.80484 c 1.71741,-1.4451 2.89577,-2.99443 2.61857,-3.44294 -0.59675,-0.96556 -9.58484,-7.0028 -10.42281,-7.00093 -0.31821,7.1e-4 -0.57856,3.55422 -0.57856,7.8967 l 0,7.89541 2.63012,-1.36039 c 1.44657,-0.74821 4.03527,-2.54274 5.75268,-3.98785 z"
       id="path4986"
       style="fill:#000000" />
  </g>
</svg>